# xmcd CD database file
#
# Track frame offsets:
#	150
#	13311
#	35658
#	52919
#	74828
#	95201
#	118060
#	132805
#	154322
#	178233
#	199384
#	219051
#
# Disc length: 3132 seconds
#
# Revision: 0
# Processed by: cddbd v1.5PL3 Copyright (c) Steve Scherf et al.
# Submitted via: CDex 1.51
#
DISCID=ba0c3a0c
DTITLE=Victor Hugo - El Niche Soy Yo
DYEAR=2002
DGENRE=Salsa
TTITLE0=Abreme La Puerta
TTITLE1=Cuando Un Amigo Se Va
TTITLE2=Vente Carinito
TTITLE3=Cada Vez
TTITLE4=El Niche Soy Yo
TTITLE5=Arrepentido
TTITLE6=El Diablo
TTITLE7=Celosa
TTITLE8=Soledad
TTITLE9=Ultimamente
TTITLE10=Siempre Lo Mismo
TTITLE11=Cada Vez
EXTD=YEAR: 2002
EXTT0=
EXTT1=
EXTT2=
EXTT3=
EXTT4=
EXTT5=
EXTT6=
EXTT7=
EXTT8=
EXTT9=
EXTT10=
EXTT11=
PLAYORDER=
